<?xml version="1.0" encoding="UTF-8" standalone="no"?>
<svg width="11px" height="11px" viewBox="0 0 11 11" version="1.1" xmlns="http://www.w3.org/2000/svg" xmlns:xlink="http://www.w3.org/1999/xlink">
    <!-- Generator: Sketch 50.2 (55047) - http://www.bohemiancoding.com/sketch -->
    <title>Grid Icon</title>
    <desc>Created with Sketch.</desc>
    <defs></defs>
    <g id="Proposal" stroke="none" stroke-width="1" fill="none" fill-rule="evenodd">
        <g id="iPhone-8" transform="translate(-14.000000, -245.000000)" fill="#333333">
            <g id="toggle" transform="translate(14.000000, 245.000000)">
                <g id="Icon-/-Grid">
                    <path d="M0,0 L3,0 L3,3 L0,3 L0,0 Z M8,8 L11,8 L11,11 L8,11 L8,8 Z M4,8 L7,8 L7,11 L4,11 L4,8 Z M0,8 L3,8 L3,11 L0,11 L0,8 Z M8,4 L11,4 L11,7 L8,7 L8,4 Z M4,4 L7,4 L7,7 L4,7 L4,4 Z M0,4 L3,4 L3,7 L0,7 L0,4 Z M8,0 L11,0 L11,3 L8,3 L8,0 Z M4,0 L7,0 L7,3 L4,3 L4,0 Z" id="Grid-Icon"></path>
                </g>
            </g>
        </g>
    </g>
</svg>